HIERARCHY
ROOT root
{
	OFFSET 0.00 0.00 0.00
	CHANNELS 6 Xposition Yposition Zposition Zrotation Xrotation Yrotation
	JOINT lowerback
	{
		OFFSET 0 0 0
		CHANNELS 6 Xposition Yposition Zposition Zrotation Xrotation Yrotation
		JOINT upperback
		{
			OFFSET -0.214371 12.3768 -1.12219
			CHANNELS 6 Xposition Yposition Zposition Zrotation Xrotation Yrotation
			JOINT thorax
			{
				OFFSET -0.00137213 12.3873 0.296195
				CHANNELS 6 Xposition Yposition Zposition Zrotation Xrotation Yrotation
				JOINT lowerneck
				{
					OFFSET 0.0883157 12.5016 0.82912
					CHANNELS 6 Xposition Yposition Zposition Zrotation Xrotation Yrotation
					JOINT upperneck
					{
						OFFSET -1 10.1794 0.943522
						CHANNELS 6 Xposition Yposition Zposition Zrotation Xrotation Yrotation
						JOINT head
						{
							OFFSET 0.667525 10.2797 -1.57149
							CHANNELS 6 Xposition Yposition Zposition Zrotation Xrotation Yrotation
							End Site
							{
								OFFSET 0 0 0
							}
						}
					}
				}
				JOINT lclavicle
				{
					OFFSET 0.0883157 12.5016 0.82912
					CHANNELS 6 Xposition Yposition Zposition Zrotation Xrotation Yrotation
					JOINT lhumerus
					{
						OFFSET 20.61 4.45006 1.43784
						CHANNELS 6 Xposition Yposition Zposition Zrotation Xrotation Yrotation
						JOINT lradius
						{
							OFFSET 0 -30.3438 0
							CHANNELS 6 Xposition Yposition Zposition Zrotation Xrotation Yrotation
							JOINT lwrist
							{
								OFFSET 0 -18.964 0
								CHANNELS 6 Xposition Yposition Zposition Zrotation Xrotation Yrotation
								JOINT lhand
								{
									OFFSET 0 -9.48199 0
									CHANNELS 6 Xposition Yposition Zposition Zrotation Xrotation Yrotation
									JOINT lfingers
									{
										OFFSET 0 -3.17138 0
										CHANNELS 6 Xposition Yposition Zposition Zrotation Xrotation Yrotation
										End Site
										{
											OFFSET 0 -2.55685 0
										}
									}
								}
								JOINT lthumb
								{
									OFFSET 0 -9.48199 0
									CHANNELS 6 Xposition Yposition Zposition Zrotation Xrotation Yrotation
									End Site
									{
										OFFSET 0 -3.67114 0
									}
								}
							}
						}
					}
				}
				JOINT rclavicle
				{
					OFFSET 0.0883157 12.5016 0.82912
					CHANNELS 6 Xposition Yposition Zposition Zrotation Xrotation Yrotation
					JOINT rhumerus
					{
						OFFSET -20.61 4.45 1.44
						CHANNELS 6 Xposition Yposition Zposition Zrotation Xrotation Yrotation
						JOINT rradius
						{
							OFFSET 0 -29.5102 0
							CHANNELS 6 Xposition Yposition Zposition Zrotation Xrotation Yrotation
							JOINT rwrist
							{
								OFFSET 0 -19.2342 0
								CHANNELS 6 Xposition Yposition Zposition Zrotation Xrotation Yrotation
								JOINT rhand
								{
									OFFSET 0 -9.61712 0
									CHANNELS 6 Xposition Yposition Zposition Zrotation Xrotation Yrotation
									JOINT rfingers
									{
										OFFSET 0 -3.29215 0
										CHANNELS 6 Xposition Yposition Zposition Zrotation Xrotation Yrotation
										End Site
										{
											OFFSET 0 -2.557 0
										}
									}
								}
								JOINT rthumb
								{
									OFFSET 0 -9.61712 0
									CHANNELS 6 Xposition Yposition Zposition Zrotation Xrotation Yrotation
									End Site
									{
										OFFSET 0 -3.671 0
									}
								}
							}
						}
					}
				}
			}
		}
	}
	JOINT rfemur
	{
		OFFSET -8.46272 -9.62775 4.76248
		CHANNELS 6 Xposition Yposition Zposition Zrotation Xrotation Yrotation
		JOINT rtibia
		{
			OFFSET 1.00552e-005 -38.0331 0
			CHANNELS 6 Xposition Yposition Zposition Zrotation Xrotation Yrotation
			JOINT rfoot
			{
				OFFSET 1.14428e-005 -43.2815 0
				CHANNELS 6 Xposition Yposition Zposition Zrotation Xrotation Yrotation
				JOINT rtoes
				{
					OFFSET 0 -14.1868 -3.08763
					CHANNELS 6 Xposition Yposition Zposition Zrotation Xrotation Yrotation
					End Site
					{
						OFFSET 0 -7.27332 0
					}
				}
			}
		}
	}
	JOINT lfemur
	{
		OFFSET 9.10607 -9.62778 4.76249
		CHANNELS 6 Xposition Yposition Zposition Zrotation Xrotation Yrotation
		JOINT ltibia
		{
			OFFSET -1.01399e-005 -38.3535 0
			CHANNELS 6 Xposition Yposition Zposition Zrotation Xrotation Yrotation
			JOINT lfoot
			{
				OFFSET -1.12937e-005 -42.7176 0
				CHANNELS 6 Xposition Yposition Zposition Zrotation Xrotation Yrotation
				JOINT ltoes
				{
					OFFSET 0 -13.9965 -2.83857
					CHANNELS 6 Xposition Yposition Zposition Zrotation Xrotation Yrotation
					End Site
					{
						OFFSET 0 -7.16348 0
					}
				}
			}
		}
	}
}
MOTION
Frames: 8
Frame Time: 0.00833333
5.52653	97.7321	60.7129	1.47879	0.842338	-1.47716	0 0 0 -0.385344	-2.98136	-0.727757	-0.214371 12.3768 -1.12219 -2.09835	2.38225	-0.799848	-0.00137213 12.3873 0.296195 -2.03515	4.10275	-0.343541	0.0883157 12.5016 0.82912 -5.34268	-10.4036	-4.14881	-1 10.1794 0.943522 13.4424	10.4188	-6.09325	0.667525 10.2797 -1.57149 4.37253	5.3952	-2.13896	0.0883157 12.5016 0.82912 -15	0	-0	20.61 4.45006 1.43784 16.4867	-9.94723	-172.481	0 -30.3438 0 -0	19.4228	-0	0 -18.964 0 1.29684e-014	-3.71632e-015	-121.981	0 -9.48199 0 1.22245	4.37968	-2.58917e-014	0 -3.17138 0 -0	7.12502	-0	0 -9.48199 0 25	15	-1.36605e-015	0.0883157 12.5016 0.82912 15	0	-0	-20.61 4.45 1.44 -12.2447	-1.14104	177.937	0 -29.5102 0 -0	24.7234	-0	0 -19.2342 0 9.72711e-016	-3.56431e-015	120.529	0 -9.61712 0 1.22	4.38	-0	0 -3.29215 0 -0	7.12502	-0	0 -9.61712 0 25	15	-7.97034e-015	-8.46272 -9.62775 4.76248 0.697921	-28.0785	4.78636	1.00552e-005 -38.0331 0 -0	47.6452	-0	1.14428e-005 -43.2815 0 -74.2006	-76.1552	-74.6378	0 -14.1868 -3.08763 -0	-38.7596	-0	9.10607 -9.62778 4.76249 -6.90537	-1.06469	12.0713	-1.01399e-005 -38.3535 0 -0	16.2134	-0	-1.12937e-005 -42.7176 0 -2.55163	-79.5619	-2.59453	0 -13.9965 -2.83857 -0	-28.7971	-0
5.55356	97.7512	61.0249	1.5066	0.83369	-1.49706	0 0 0 -0.409455	-2.94798	-0.761694	-0.214371 12.3768 -1.12219 -2.09573	2.39923	-0.843494	-0.00137213 12.3873 0.296195 -2.02234	4.10046	-0.365547	0.0883157 12.5016 0.82912 -5.31669	-10.4043	-4.13441	-1 10.1794 0.943522 13.4138	10.3812	-6.07188	0.667525 10.2797 -1.57149 4.36209	5.38079	-2.13158	0.0883157 12.5016 0.82912 -15	0	-0	20.61 4.45006 1.43784 16.4194	-10.0222	-172.858	0 -30.3438 0 -0	19.5643	-0	0 -18.964 0 1.29844e-014	-3.69073e-015	-121.735	0 -9.48199 0 1.22245	4.37968	-2.58917e-014	0 -3.17138 0 -0	7.12502	-0	0 -9.48199 0 25	15	-1.36605e-015	0.0883157 12.5016 0.82912 15	0	-0	-20.61 4.45 1.44 -12.2177	-0.98414	177.781	0 -29.5102 0 -0	24.5813	-0	0 -19.2342 0 9.78006e-016	-3.57327e-015	120.614	0 -9.61712 0 1.22	4.38	-0	0 -3.29215 0 -0	7.12502	-0	0 -9.61712 0 25	15	-7.97034e-015	-8.46272 -9.62775 4.76248 0.835424	-28.5179	4.82814	1.00552e-005 -38.0331 0 -0	46.7029	-0	1.14428e-005 -43.2815 0 -73.935	-75.8308	-74.3998	0 -14.1868 -3.08763 -0	-38.0637	-0	9.10607 -9.62778 4.76249 -7.04533	-0.568999	11.9612	-1.01399e-005 -38.3535 0 -0	15.66	-0	-1.12937e-005 -42.7176 0 -1.61305	-79.4657	-1.64071	0 -13.9965 -2.83857 -0	-28.9712	-0
5.57945	97.7711	61.3389	1.53609	0.829059	-1.51442	0 0 0 -0.43367	-2.92166	-0.794356	-0.214371 12.3768 -1.12219 -2.09308	2.41385	-0.885526	-0.00137213 12.3873 0.296195 -2.00889	4.09933	-0.386822	0.0883157 12.5016 0.82912 -5.29588	-10.4051	-4.12348	-1 10.1794 0.943522 13.384	10.3497	-6.05513	0.667525 10.2797 -1.57149 4.35149	5.36846	-2.12636	0.0883157 12.5016 0.82912 -15	0	-0	20.61 4.45006 1.43784 16.3521	-10.0935	-173.249	0 -30.3438 0 -0	19.7003	-0	0 -18.964 0 1.3001e-014	-3.66371e-015	-121.476	0 -9.48199 0 1.22245	4.37968	-2.58917e-014	0 -3.17138 0 -0	7.12502	-0	0 -9.48199 0 25	15	-1.36605e-015	0.0883157 12.5016 0.82912 15	0	-0	-20.61 4.45 1.44 -12.1922	-0.820686	177.643	0 -29.5102 0 -0	24.4458	-0	0 -19.2342 0 9.83376e-016	-3.58233e-015	120.7	0 -9.61712 0 1.22	4.38	-0	0 -3.29215 0 -0	7.12502	-0	0 -9.61712 0 25	15	-7.97034e-015	-8.46272 -9.62775 4.76248 0.965507	-28.9421	4.83745	1.00552e-005 -38.0331 0 -0	45.7527	-0	1.14428e-005 -43.2815 0 -73.5202	-75.4598	-74.0208	0 -14.1868 -3.08763 -0	-37.1931	-0	9.10607 -9.62778 4.76249 -7.19058	-0.0519235	11.8416	-1.01399e-005 -38.3535 0 -0	15.0584	-0	-1.12937e-005 -42.7176 0 -0.646292	-79.3447	-0.65765	0 -13.9965 -2.83857 -0	-29.143	-0
5.60491	97.7907	61.6549	1.56693	0.830983	-1.53032	0 0 0 -0.457238	-2.90093	-0.82559	-0.214371 12.3768 -1.12219 -2.09007	2.42557	-0.92574	-0.00137213 12.3873 0.296195 -1.99655	4.09837	-0.407223	0.0883157 12.5016 0.82912 -5.2815	-10.4059	-4.11386	-1 10.1794 0.943522 13.3594	10.3233	-6.04017	0.667525 10.2797 -1.57149 4.34359	5.35787	-2.12582	0.0883157 12.5016 0.82912 -15	0	-0	20.61 4.45006 1.43784 16.2887	-10.1637	-173.645	0 -30.3438 0 -0	19.8293	-0	0 -18.964 0 1.3018e-014	-3.63568e-015	-121.208	0 -9.48199 0 1.22245	4.37968	-2.58917e-014	0 -3.17138 0 -0	7.12502	-0	0 -9.48199 0 25	15	-1.36605e-015	0.0883157 12.5016 0.82912 15	0	-0	-20.61 4.45 1.44 -12.1676	-0.650115	177.517	0 -29.5102 0 -0	24.3179	-0	0 -19.2342 0 9.88572e-016	-3.59107e-015	120.783	0 -9.61712 0 1.22	4.38	-0	0 -3.29215 0 -0	7.12502	-0	0 -9.61712 0 25	15	-7.97034e-015	-8.46272 -9.62775 4.76248 1.08704	-29.3538	4.81143	1.00552e-005 -38.0331 0 -0	44.7991	-0	1.14428e-005 -43.2815 0 -72.9466	-75.0826	-73.4897	0 -14.1868 -3.08763 -0	-36.2804	-0	9.10607 -9.62778 4.76249 -7.33583	0.475414	11.7205	-1.01399e-005 -38.3535 0 -0	14.4273	-0	-1.12937e-005 -42.7176 0 0.275049	-79.2036	0.279986	0 -13.9965 -2.83857 -0	-29.3063	-0
5.6285	97.8096	61.9728	1.6001	0.839339	-1.53907	0 0 0 -0.483102	-2.88428	-0.857294	-0.214371 12.3768 -1.12219 -2.08699	2.43108	-0.966611	-0.00137213 12.3873 0.296195 -1.98296	4.09655	-0.428094	0.0883157 12.5016 0.82912 -5.28019	-10.407	-4.10704	-1 10.1794 0.943522 13.3437	10.3013	-6.02905	0.667525 10.2797 -1.57149 4.34092	5.34912	-2.12544	0.0883157 12.5016 0.82912 -15	0	-0	20.61 4.45006 1.43784 16.2255	-10.2352	-174.038	0 -30.3438 0 -0	19.9494	-0	0 -18.964 0 1.30355e-014	-3.60673e-015	-120.932	0 -9.48199 0 1.22245	4.37968	-2.58917e-014	0 -3.17138 0 -0	7.12502	-0	0 -9.48199 0 25	15	-1.36605e-015	0.0883157 12.5016 0.82912 15	0	-0	-20.61 4.45 1.44 -12.1433	-0.471835	177.401	0 -29.5102 0 -0	24.1988	-0	0 -19.2342 0 9.93403e-016	-3.59917e-015	120.86	0 -9.61712 0 1.22	4.38	-0	0 -3.29215 0 -0	7.12502	-0	0 -9.61712 0 25	15	-7.97034e-015	-8.46272 -9.62775 4.76248 1.19887	-29.7557	4.7472	1.00552e-005 -38.0331 0 -0	43.8465	-0	1.14428e-005 -43.2815 0 -72.2006	-74.7392	-72.7907	0 -14.1868 -3.08763 -0	-35.4577	-0	9.10607 -9.62778 4.76249 -7.47617	1.00181	11.6056	-1.01399e-005 -38.3535 0 -0	13.7851	-0	-1.12937e-005 -42.7176 0 1.08283	-79.0478	1.10289	0 -13.9965 -2.83857 -0	-29.4547	-0
5.64954	97.8273	62.2926	1.63387	0.857271	-1.5383	0 0 0 -0.510442	-2.86917	-0.889171	-0.214371 12.3768 -1.12219 -2.08393	2.43085	-1.00789	-0.00137213 12.3873 0.296195 -1.96799	4.0901	-0.449319	0.0883157 12.5016 0.82912 -5.28095	-10.4083	-4.1046	-1 10.1794 0.943522 13.3329	10.2854	-6.02279	0.667525 10.2797 -1.57149 4.34033	5.34362	-2.1252	0.0883157 12.5016 0.82912 -15	0	-0	20.61 4.45006 1.43784 16.1622	-10.3079	-174.428	0 -30.3438 0 -0	20.0622	-0	0 -18.964 0 1.30539e-014	-3.57591e-015	-120.639	0 -9.48199 0 1.22245	4.37968	-2.58917e-014	0 -3.17138 0 -0	7.12502	-0	0 -9.48199 0 25	15	-1.36605e-015	0.0883157 12.5016 0.82912 15	0	-0	-20.61 4.45 1.44 -12.1202	-0.286226	177.298	0 -29.5102 0 -0	24.0876	-0	0 -19.2342 0 9.98057e-016	-3.60694e-015	120.934	0 -9.61712 0 1.22	4.38	-0	0 -3.29215 0 -0	7.12502	-0	0 -9.61712 0 25	15	-7.97034e-015	-8.46272 -9.62775 4.76248 1.30014	-30.1501	4.64196	1.00552e-005 -38.0331 0 -0	42.8931	-0	1.14428e-005 -43.2815 0 -71.2808	-74.3963	-71.9252	0 -14.1868 -3.08763 -0	-34.7229	-0	9.10607 -9.62778 4.76249 -7.61025	1.52034	11.4888	-1.01399e-005 -38.3535 0 -0	13.1368	-0	-1.12937e-005 -42.7176 0 1.80026	-78.8776	1.83468	0 -13.9965 -2.83857 -0	-29.5802	-0
5.66811	97.8436	62.6133	1.66503	0.881449	-1.52592	0 0 0 -0.537371	-2.85548	-0.922819	-0.214371 12.3768 -1.12219 -2.08078	2.43014	-1.05182	-0.00137213 12.3873 0.296195 -1.95191	4.08154	-0.471963	0.0883157 12.5016 0.82912 -5.28313	-10.4133	-4.10421	-1 10.1794 0.943522 13.3273	10.2744	-6.01907	0.667525 10.2797 -1.57149 4.33995	5.34226	-2.12513	0.0883157 12.5016 0.82912 -15	0	-0	20.61 4.45006 1.43784 16.0976	-10.3807	-174.821	0 -30.3438 0 -0	20.168	-0	0 -18.964 0 1.30729e-014	-3.54361e-015	-120.333	0 -9.48199 0 1.22245	4.37968	-2.58917e-014	0 -3.17138 0 -0	7.12502	-0	0 -9.48199 0 25	15	-1.36605e-015	0.0883157 12.5016 0.82912 15	0	-0	-20.61 4.45 1.44 -12.0984	-0.09341	177.207	0 -29.5102 0 -0	23.9843	-0	0 -19.2342 0 1.00247e-015	-3.61429e-015	121.004	0 -9.61712 0 1.22	4.38	-0	0 -3.29215 0 -0	7.12502	-0	0 -9.61712 0 25	15	-7.97034e-015	-8.46272 -9.62775 4.76248 1.3901	-30.5352	4.49708	1.00552e-005 -38.0331 0 -0	41.9376	-0	1.14428e-005 -43.2815 0 -70.2138	-74.0443	-70.9202	0 -14.1868 -3.08763 -0	-34.0179	-0	9.10607 -9.62778 4.76249 -7.74064	2.03829	11.3693	-1.01399e-005 -38.3535 0 -0	12.4725	-0	-1.12937e-005 -42.7176 0 2.45005	-78.6913	2.49848	0 -13.9965 -2.83857 -0	-29.6883	-0
5.68421	97.8574	62.937	1.6938	0.910086	-1.5078	0 0 0 -0.564059	-2.84322	-0.955393	-0.214371 12.3768 -1.12219 -2.07777	2.42901	-1.09448	-0.00137213 12.3873 0.296195 -1.93554	4.07094	-0.494038	0.0883157 12.5016 0.82912 -5.28632	-10.4272	-4.10437	-1 10.1794 0.943522 13.3265	10.2731	-6.0201	0.667525 10.2797 -1.57149 4.33975	5.34275	-2.12521	0.0883157 12.5016 0.82912 -15	0	-0	20.61 4.45006 1.43784 16.033	-10.455	-175.21	0 -30.3438 0 -0	20.2631	-0	0 -18.964 0 1.30916e-014	-3.51143e-015	-120.029	0 -9.48199 0 1.22245	4.37968	-2.58917e-014	0 -3.17138 0 -0	7.12502	-0	0 -9.48199 0 25	15	-1.36605e-015	0.0883157 12.5016 0.82912 15	0	-0	-20.61 4.45 1.44 -12.0761	0.107515	177.123	0 -29.5102 0 -0	23.8904	-0	0 -19.2342 0 1.00651e-015	-3.62101e-015	121.068	0 -9.61712 0 1.22	4.38	-0	0 -3.29215 0 -0	7.12502	-0	0 -9.61712 0 25	15	-7.97034e-015	-8.46272 -9.62775 4.76248 1.46774	-30.9066	4.31601	1.00552e-005 -38.0331 0 -0	40.9851	-0	1.14428e-005 -43.2815 0 -69.0048	-73.7568	-69.7739	0 -14.1868 -3.08763 -0	-33.3912	-0	9.10607 -9.62778 4.76249 -7.869	2.56565	11.2658	-1.01399e-005 -38.3535 0 -0	11.7884	-0	-1.12937e-005 -42.7176 0 2.96862	-78.4925	3.02938	0 -13.9965 -2.83857 -0	-29.793	-0
